# xmcd
#
# Track frame offsets: 
#        150
#        27939
#        48400
#        76538
#        98741
#        128548
#        179978
#        206727
#        230318
#        257354
#
# Disc length: 3746 seconds
#
# Revision: 1
# Processed by: cddbd v1.5.2PL0 Copyright (c) Steve Scherf et al.
# Submitted via: ExactAudioCopy v1.0b3
#
DISCID=770ea00a
DTITLE=Clarence Gatemouth Brown - Live From Austin TX
DYEAR=2012
DGENRE=Blues
TTITLE0=Ain't That Dandy
TTITLE1=Born In Louisiana
TTITLE2=Honky-Tonk
TTITLE3=Dark End Of The Hallway
TTITLE4=Bits And Pieces
TTITLE5=Leftover Blues
TTITLE6=There You Are
TTITLE7=Early In The Mornin
TTITLE8=Things Ain't What They Used To Be
TTITLE9=Up Jumped The Devil
EXTD=
EXTT0=
EXTT1=
EXTT2=
EXTT3=
EXTT4=
EXTT5=
EXTT6=
EXTT7=
EXTT8=
EXTT9=
PLAYORDER=
